<svg id="Layer_1" data-name="Layer 1" xmlns="http://www.w3.org/2000/svg" viewBox="0 0 283 142"><path d="M0,0ZM0,0ZM0,0ZM0,0Z" style="fill:#9aa78b"/><rect x="76" y="73" width="12" height="9.99" style="fill:#9aa78b"/><rect x="80" y="61" width="3" height="12.62" style="fill:#9aa78b"/><rect x="76" y="61" width="12" height="2.85" style="fill:#9aa78b"/><path d="M0,0Z" style="fill:#9aa78b"/><path d="M0,0Z" style="fill:#9aa78b"/><path d="M0,0Z" style="fill:#9aa78b"/><path d="M0,0Z" style="fill:#9aa78b"/><path d="M0,0Z" style="fill:#9aa78b"/><path d="M0,0Z" style="fill:#9aa78b"/><path d="M0,0Z" style="fill:#9aa78b"/><path d="M0,0Z" style="fill:#9aa78b"/><path d="M0,0Z" style="fill:#9aa78b"/><polygon points="22 83 18 71 29 71 25 83 22 83" style="fill:#9aa78b"/><rect x="23" y="61" width="2" height="13.33" style="fill:#9aa78b"/><rect x="22" y="61" width="3" height="6.26" style="fill:#9aa78b"/><path d="M0,0ZM0,0Z" style="fill:#9aa78b"/><path d="M0,0ZM0,0Z" style="fill:#9aa78b"/><path d="M0,0ZM0,0Z" style="fill:#9aa78b"/><path d="M0,0Z" style="fill:#9aa78b"/><path d="M0,0Z" style="fill:#9aa78b"/><path d="M0,0Z" style="fill:#9aa78b"/><path d="M0,0Z" style="fill:#9aa78b"/><path d="M0,0Z" style="fill:#9aa78b"/><path d="M0,0ZM0,0ZM0,0Z" style="fill:#9aa78b"/><path d="M0,0Z" style="fill:#9aa78b"/><path d="M0,0Z" style="fill:#9aa78b"/><path d="M0,0ZM0,0Z" style="fill:#9aa78b"/><path d="M0,0ZM0,0Z" style="fill:#9aa78b"/><path d="M0,0ZM0,0Z" style="fill:#9aa78b"/><path d="M0,0Z" style="fill:#9aa78b"/><path d="M0,0Z" style="fill:#9aa78b"/><path d="M0,0Z" style="fill:#9aa78b"/><path d="M0,0Z" style="fill:#9aa78b"/><path d="M0,0Z" style="fill:#9aa78b"/><path d="M0,0Z" style="fill:#9aa78b"/><path d="M0,0ZM0,0Z" style="fill:#9aa78b"/><path d="M0,0ZM0,0Z" style="fill:#9aa78b"/><path d="M0,0Z" style="fill:#9aa78b"/><path d="M0,0ZM0,0Z" style="fill:#9aa78b"/><path d="M0,0Z" style="fill:#9aa78b"/><path d="M0,0ZM0,0ZM0,0Z" style="fill:#9aa78b"/><path d="M0,0Z" style="fill:#9aa78b"/><path d="M0,0Z" style="fill:#9aa78b"/><path d="M0,0Z" style="fill:#9aa78b"/><path d="M0,0Z" style="fill:#9aa78b"/><path d="M0,0Z" style="fill:#9aa78b"/><path d="M0,0Z" style="fill:#9aa78b"/><path d="M0,0ZM0,0Z" style="fill:#9aa78b"/><path d="M0,0Z" style="fill:#9aa78b"/><path d="M0,0Z" style="fill:#9aa78b"/><path d="M0,0Z" style="fill:#9aa78b"/><path d="M0,0ZM0,0ZM0,0ZM0,0ZM0,0ZM0,0Z" style="fill:#9aa78b"/><rect x="18" y="106" width="248" height="35.94" style="fill:#9aa78b"/><path d="M0,0ZM0,0Z" style="fill:#fff"/><path d="M0,0ZM0,0Z" style="fill:#fff"/><path d="M0,0Z" style="fill:#fff"/><path d="M0,0Z" style="fill:#fff"/><path d="M0,0Z" style="fill:#fff"/><path d="M0,0Z" style="fill:#fff"/><path d="M0,0Z" style="fill:#fff"/><path d="M0,0Z" style="fill:#fff"/><path d="M0,0Z" style="fill:#fff"/><path d="M0,0Z" style="fill:#fff"/><path d="M0,0Z" style="fill:#fff"/><polygon points="111 61 100 61 100 93 123 93 123 84 111 84 111 61" style="fill:#fff"/><path d="M0,0Z" style="fill:#fff"/><path d="M0,0ZM0,0Z" style="fill:#fff"/><polygon points="258 74 266 61 254 61 249 73 244 61 232 61 244 81 244 93 254 93 254 81 254 81 254 74 258 74" style="fill:#fff"/><polygon points="254 74 254 81 258 74 254 74" style="fill:#fff"/><path d="M0,0Z" style="fill:#fff"/><path d="M0,0Z" style="fill:#fff"/><path d="M0,0Z" style="fill:#fff"/><path d="M0,0ZM0,0Z" style="fill:#fff"/><path d="M0,0ZM0,0Z" style="fill:#fff"/><path d="M0,0Z" style="fill:#fff"/></svg>