<?xml version="1.0" standalone="no"?>
<!DOCTYPE svg PUBLIC "-//W3C//DTD SVG 20010904//EN"
 "http://www.w3.org/TR/2001/REC-SVG-20010904/DTD/svg10.dtd">
<svg version="1.0" xmlns="http://www.w3.org/2000/svg"
 width="1920.000000pt" height="1920.000000pt" viewBox="0 0 1920.000000 1920.000000"
 preserveAspectRatio="xMidYMid meet">
<metadata>
Created by potrace 1.14, written by Peter Selinger 2001-2017
</metadata>
<g transform="translate(0.000000,1920.000000) scale(0.100000,-0.100000)"
fill="#000000" stroke="none">
<path d="M0 9600 l0 -9600 9600 0 9600 0 0 9600 0 9600 -9600 0 -9600 0 0
-9600z m3720 2815 l0 -675 -90 0 -90 0 2 -457 3 -458 534 -3 c502 -2 533 -3
526 -20 -8 -19 -876 -2299 -907 -2379 l-19 -53 -312 0 -312 0 -463 1218 c-254
669 -462 1220 -462 1225 0 4 239 7 530 7 l530 0 0 460 0 460 -90 0 -90 0 0
675 0 675 355 0 355 0 0 -675z m13103 665 l277 0 0 -305 0 -305 -455 0 -455 0
0 -975 0 -975 445 0 445 0 0 -1075 0 -1075 -1245 0 -1245 0 0 1075 0 1075 445
0 445 0 0 975 0 975 -440 0 -440 0 0 305 0 305 443 3 c243 2 681 2 972 0 292
-1 655 -3 808 -3z m-5460 -236 c-496 -926 -837 -1930 -1018 -2999 -58 -344
-103 -763 -86 -807 11 -29 14 -22 36 97 57 306 172 654 319 960 341 711 871
1250 1576 1603 143 72 394 182 415 182 3 0 -20 -39 -52 -87 -440 -677 -762
-1403 -947 -2133 -74 -290 -137 -663 -116 -684 12 -12 11 -16 49 89 202 552
744 995 1506 1234 152 47 408 111 444 111 l26 -1 -27 -20 c-44 -33 -215 -225
-294 -331 -253 -339 -420 -727 -498 -1158 -28 -157 -46 -321 -46 -430 0 -46
-5 -81 -12 -88 -17 -17 -6069 -17 -6086 0 -8 8 -12 47 -12 108 0 199 -47 489
-116 720 -127 421 -335 779 -640 1098 -107 113 -108 111 29 87 281 -49 778
-253 1100 -452 361 -223 646 -578 773 -962 46 -139 61 -135 44 11 -99 866
-481 1876 -1036 2743 -46 72 -79 132 -73 133 32 11 467 -194 664 -313 396
-239 744 -567 1022 -960 348 -493 599 -1178 664 -1810 6 -60 14 -114 18 -118
4 -4 11 63 14 150 20 475 130 1069 287 1544 148 448 362 893 603 1254 174 260
332 452 566 685 295 294 561 501 901 702 63 37 116 66 117 64 2 -2 -49 -102
-114 -222z m-2823 -5119 l0 -55 1050 0 1050 0 0 55 0 55 3220 0 3220 0 0 -840
0 -840 -7490 0 -7490 0 0 840 0 840 3220 0 3220 0 0 -55z"/>
<path d="M13755 7470 c-262 -53 -445 -271 -445 -530 0 -80 19 -172 35 -170 6
0 167 152 358 337 235 228 344 339 335 344 -44 25 -202 35 -283 19z"/>
<path d="M5012 7391 c-107 -70 -183 -164 -224 -278 -26 -73 -34 -200 -19 -276
17 -77 72 -185 127 -246 46 -51 156 -131 180 -131 12 0 14 78 14 485 0 267 -4
485 -8 485 -5 0 -36 -18 -70 -39z"/>
<path d="M5530 6945 c0 -329 3 -485 10 -485 50 0 181 111 242 204 132 204 99
486 -79 658 -36 35 -148 108 -165 108 -4 0 -8 -218 -8 -485z"/>
<path d="M8540 7140 l0 -90 1050 0 1050 0 0 90 0 90 -1050 0 -1050 0 0 -90z"/>
<path d="M14015 6798 c-192 -188 -351 -344 -353 -348 -11 -29 222 -51 321 -30
196 40 372 212 417 409 20 85 -2 313 -29 310 -3 0 -163 -153 -356 -341z"/>
</g>
</svg>
